<?xml version="1.0"?>
<!-- Generated by SVGo -->
<svg width="600" height="442"
     xmlns="http://www.w3.org/2000/svg"
     xmlns:xlink="http://www.w3.org/1999/xlink">
<rect x="0" y="0" width="600" height="442" style="fill:rgb(240,240,240)" />
<g style="font-size:15px;font-family:sans-serif">
<text x="110" y="25" style="text-anchor:middle;font-size:120%" >a1-padding</text>
<rect x="60" y="50" width="100" height="10" style="fill:steelblue" />
<text x="170" y="60" >0</text>
<text x="220" y="60" >A1.a bool (size 1, align 1)</text>
<rect x="60" y="68" width="100" height="30" style="fill:maroon" />
<text x="170" y="78" >1</text>
<text x="220" y="78" >padding (size 3, align 0)</text>
<text x="50" y="98" style="text-anchor:end" >3</text>
<rect x="60" y="106" width="100" height="40" style="fill:steelblue" />
<text x="170" y="116" >4</text>
<text x="220" y="116" >A1.b int32 (size 4, align 4)</text>
<text x="50" y="146" style="text-anchor:end" >7</text>
<rect x="60" y="154" width="100" height="10" style="fill:steelblue" />
<text x="170" y="164" >8</text>
<text x="220" y="164" >A1.c byte (size 1, align 1)</text>
<rect x="60" y="172" width="100" height="70" style="fill:maroon" />
<text x="170" y="182" >9</text>
<text x="220" y="182" >padding (size 7, align 0)</text>
<text x="50" y="242" style="text-anchor:end" >15</text>
<rect x="60" y="250" width="100" height="80" style="fill:steelblue" />
<text x="170" y="260" >16</text>
<text x="220" y="260" >A1.d int64 (size 8, align 8)</text>
<text x="50" y="330" style="text-anchor:end" >23</text>
<rect x="60" y="338" width="100" height="10" style="fill:steelblue" />
<text x="170" y="348" >24</text>
<text x="220" y="348" >A1.e int8 (size 1, align 1)</text>
<rect x="60" y="356" width="100" height="70" style="fill:maroon" />
<text x="170" y="366" >25</text>
<text x="220" y="366" >padding (size 7, align 0)</text>
<text x="50" y="426" style="text-anchor:end" >31</text>
</g>
</svg>
