<?xml version="1.0"?>
<!-- Generated by SVGo -->
<svg width="600" height="266"
     xmlns="http://www.w3.org/2000/svg"
     xmlns:xlink="http://www.w3.org/1999/xlink">
<rect x="0" y="0" width="600" height="266" style="fill:rgb(240,240,240)" />
<g style="font-size:15px;font-family:sans-serif">
<text x="110" y="25" style="text-anchor:middle;font-size:120%" >a1Rearrange-padding</text>
<rect x="60" y="50" width="100" height="80" style="fill:steelblue" />
<text x="170" y="60" >0</text>
<text x="220" y="60" >A1Rearrange.d int64 (size 8, align 8)</text>
<text x="50" y="130" style="text-anchor:end" >7</text>
<rect x="60" y="138" width="100" height="40" style="fill:steelblue" />
<text x="170" y="148" >8</text>
<text x="220" y="148" >A1Rearrange.b int32 (size 4, align 4)</text>
<text x="50" y="178" style="text-anchor:end" >11</text>
<rect x="60" y="186" width="100" height="10" style="fill:steelblue" />
<text x="170" y="196" >12</text>
<text x="220" y="196" >A1Rearrange.a bool (size 1, align 1)</text>
<rect x="60" y="204" width="100" height="10" style="fill:steelblue" />
<text x="170" y="214" >13</text>
<text x="220" y="214" >A1Rearrange.c byte (size 1, align 1)</text>
<rect x="60" y="222" width="100" height="10" style="fill:steelblue" />
<text x="170" y="232" >14</text>
<text x="220" y="232" >A1Rearrange.e int8 (size 1, align 1)</text>
<rect x="60" y="240" width="100" height="10" style="fill:maroon" />
<text x="170" y="250" >15</text>
<text x="220" y="250" >padding (size 1, align 0)</text>
</g>
</svg>
